Coordinates
version=1
nRows=10
nColumns=63
inDegrees=yes

Units are S.I. units (second, meters, Newtons, ...)
If the header above contains a line with 'inDegrees', this indicates whether rotational values are in degrees (yes) or radians (no).

endheader
time	pelvis_tilt	pelvis_list	pelvis_rotation	pelvis_tx	pelvis_ty	pelvis_tz	hip_flexion_r	hip_adduction_r	hip_rotation_r	knee_angle_r	knee_angle_r_beta	ankle_angle_r	subtalar_angle_r	mtp_angle_r	hip_flexion_l	hip_adduction_l	hip_rotation_l	knee_angle_l	knee_angle_l_beta	ankle_angle_l	subtalar_angle_l	mtp_angle_l	L5_S1_Flex_Ext	L5_S1_Lat_Bending	L5_S1_axial_rotation	L4_L5_Flex_Ext	L4_L5_Lat_Bending	L4_L5_axial_rotation	L3_L4_Flex_Ext	L3_L4_Lat_Bending	L3_L4_axial_rotation	L2_L3_Flex_Ext	L2_L3_Lat_Bending	L2_L3_axial_rotation	L1_L2_Flex_Ext	L1_L2_Lat_Bending	L1_L2_axial_rotation	L1_T12_Flex_Ext	L1_T12_Lat_Bending	L1_T12_axial_rotation	Abs_r3	Abs_r2	Abs_r1	Abs_t1	Abs_t2	neck_flexion	neck_bending	neck_rotation	arm_flex_r	arm_add_r	arm_rot_r	elbow_flex_r	pro_sup_r	wrist_flex_r	wrist_dev_r	arm_flex_l	arm_add_l	arm_rot_l	elbow_flex_l	pro_sup_l	wrist_flex_l	wrist_dev_l
      0.00000000	      3.24507403	     -4.75725114	    121.84799772	      0.30885869	      0.55100165	      0.94752003	     10.14187532	     -4.33079161	    -16.25041559	     18.32703904	      0.31986717	     35.04701821	      3.38545136	      0.00000000	     10.32479700	      3.88244620	      1.99879220	     12.83269278	      0.22397274	     30.80574028	      6.68291191	      0.00000000	      0.20405318	     -0.01142814	     -1.94723301	      0.37894715	     -0.01519943	     -2.06893508	      0.33523896	     -0.02778639	     -2.06893508	      0.23321237	     -0.02778639	     -1.70382889	      0.18948378	     -0.02330427	     -1.58212682	      0.11659598	     -0.01770220	     -1.46042476	      1.45753143	     -0.12927745	    -10.82992585	      0.00000000	      0.00000000	     26.37016106	     -0.47517349	      5.89019043	     13.42214311	    -14.69618732	     54.39365478	     50.72415779	     88.21307253	     -6.03649590	      9.66635385	     15.77886810	     -8.78732100	     53.48309071	     51.13779160	     60.51269479	      4.14184604	     27.51010175
      0.01666667	      3.12788175	     -4.66591601	    121.50229445	      0.30903562	      0.55078602	      0.94774654	      9.41785075	     -4.33262352	    -16.79513215	     17.73218613	      0.30948503	     33.64967703	      3.21017370	      0.00000000	     10.10872854	      3.91732507	      1.72360478	     12.82076166	      0.22376450	     30.70103443	      6.60611540	      0.00000000	      0.20112353	     -0.02759074	     -1.92977424	      0.37350652	     -0.03669569	     -2.05038513	      0.33042586	     -0.06708413	     -2.05038513	      0.22986409	     -0.06708413	     -1.68855246	      0.18676331	     -0.05626304	     -1.56794157	      0.11492199	     -0.04273806	     -1.44733068	      1.43660530	     -0.31211200	    -10.73282540	      0.00000000	      0.00000000	     25.96561175	     -0.17555849	      5.45716776	     13.07029394	    -14.43224479	     54.40408233	     50.16442662	     88.08788390	     -3.91413359	     10.13073294	     16.11111338	     -8.91891066	     54.76024596	     50.38589140	     61.12723021	      4.77073233	     30.03177733
      0.03333333	      3.05890279	     -4.71130728	    121.23157017	      0.30912798	      0.55038126	      0.94819750	      9.15408995	     -4.43064584	    -17.24135964	     17.55938626	      0.30646910	     32.66642144	      3.03922821	      0.00000000	     10.09941645	      4.00404940	      1.36986886	     12.89472155	      0.22505535	     30.54004873	      6.34279203	      0.00000000	      0.20707016	     -0.03474018	     -1.91219579	      0.38454999	     -0.04620444	     -2.03170803	      0.34019556	     -0.08446728	     -2.03170803	      0.23666048	     -0.08446728	     -1.67317132	      0.19228535	     -0.07084218	     -1.55365908	      0.11831989	     -0.05381254	     -1.43414684	      1.47908143	     -0.39298790	    -10.63505933	      0.00000000	      0.00000000	     25.91128518	     -0.16733906	      5.36881088	     12.64888478	    -14.21854566	     54.34933479	     49.83582248	     88.01067655	     -3.14245287	     10.30529950	     16.00036230	     -9.01309374	     55.20414577	     49.85906858	     61.37557795	      5.01660494	     30.69292679
      0.05000000	      2.91853491	     -4.61281372	    120.84601358	      0.30935690	      0.54997801	      0.94774273	      8.73176933	     -4.44410362	    -17.26215843	     17.28319216	      0.30164861	     32.35729831	      3.30078863	      0.00000000	      9.80166090	      4.17177120	      2.43512569	     12.80300173	      0.22345453	     30.18819769	      4.28177754	      0.00000000	      0.19512376	     -0.05598262	     -1.76896984	      0.36236434	     -0.07445688	     -1.87953045	      0.32056883	     -0.13611614	     -1.87953045	      0.22300695	     -0.13611614	     -1.54784861	      0.18119193	     -0.11415976	     -1.43728799	      0.11149372	     -0.08671708	     -1.32672738	      1.39374952	     -0.63328658	     -9.83847956	      0.00000000	      0.00000000	     25.78600997	     -0.30459479	      4.19520568	     11.38562563	    -13.63652815	     50.98576991	     49.42378875	     87.96554647	      2.59427849	     11.63069564	     16.38448422	     -8.39992950	     53.97663241	     48.23544651	     76.01576553	     16.24942274	     30.33401519
      0.06666667	      2.91127326	     -4.48167830	    120.55276883	      0.30939169	      0.54982967	      0.94734275	      8.38609224	     -4.32419476	    -17.35457961	     16.96393239	      0.29607647	     32.18652085	      3.68017888	      0.00000000	      9.62368141	      4.08575452	      2.31212058	     12.84600152	      0.22420502	     30.13353249	      3.84184866	      0.00000000	      0.18807184	     -0.04711816	     -1.70846228	      0.34926822	     -0.06266715	     -1.81524117	      0.30898323	     -0.11456308	     -1.81524117	      0.21494731	     -0.11456308	     -1.49490449	      0.17464351	     -0.09608334	     -1.38812560	      0.10746425	     -0.07298602	     -1.28134671	      1.34337837	     -0.53301000	     -9.50195466	      0.00000000	      0.00000000	     25.62776598	     -0.32380018	      4.15911293	     11.09828361	    -13.44397443	     51.02841582	     49.01370329	     87.69373888	      3.51352746	     11.31468835	     16.42800648	     -8.46681160	     54.67023933	     47.85666960	     76.58020869	     16.74365422	     30.32489934
      0.08333333	      2.92364065	     -4.44781087	    120.57107357	      0.30925027	      0.54958189	      0.94710665	      8.30443590	     -4.28016620	    -17.38030145	     16.95987594	      0.29600568	     32.25517452	      3.68991465	      0.00000000	      9.57480657	      4.04672564	      2.26672485	     12.88954169	      0.22496494	     30.07079568	      3.77724597	      0.00000000	      0.18778354	     -0.04340911	     -1.69673980	      0.34873281	     -0.05773411	     -1.80278604	      0.30850957	     -0.10554490	     -1.80278604	      0.21461780	     -0.10554490	     -1.48464733	      0.17437579	     -0.08851985	     -1.37860109	      0.10729951	     -0.06724071	     -1.27255485	      1.34131902	     -0.49105249	     -9.43675775	      0.00000000	      0.00000000	     25.70301350	     -0.34729487	      4.17240403	     10.81766484	    -13.29723290	     51.15554304	     48.96762055	     87.66294387	      3.57501342	     11.29759508	     16.22428654	     -8.57355794	     54.76634267	     47.73119568	     76.62164619	     16.76611308	     30.31637918
      0.10000000	      2.92993025	     -4.38581536	    120.52915398	      0.30900692	      0.54954550	      0.94647572	      8.16440698	     -4.20106958	    -17.38825079	     16.85548722	      0.29418375	     32.43476953	      3.76315926	      0.00000000	      9.49355365	      4.00404049	      2.25345634	     12.92643299	      0.22560882	     30.06763518	      3.67314839	      0.00000000	      0.19175430	     -0.03861834	     -1.67342029	      0.35610691	     -0.05136239	     -1.77800906	      0.31503314	     -0.09389663	     -1.77800906	      0.21915599	     -0.09389663	     -1.46424276	      0.17806304	     -0.07875052	     -1.35965399	      0.10956841	     -0.05981981	     -1.25506522	      1.36968178	     -0.43685838	     -9.30706165	      0.00000000	      0.00000000	     25.70703214	     -0.39586291	      4.18563323	     10.55860991	    -13.10090443	     51.26025385	     48.84020717	     87.54585201	      3.65694406	     11.18138853	     16.00614259	     -8.66806376	     54.89605912	     47.72148582	     76.66359654	     16.82951884	     30.22870287
      0.11666667	      2.63926659	     -4.22291532	    120.07778767	      0.30884045	      0.55023800	      0.94515129	      7.57039439	     -4.54866518	    -19.10061475	     16.42767747	      0.28671706	     32.99340493	      7.12111354	      0.00000000	      8.72084391	      4.49835380	      5.40181388	     12.11552674	      0.21145583	     29.09738311	     -1.07880742	      0.00000000	      0.17399136	     -0.06036938	     -1.57142144	      0.32311936	     -0.08029128	     -1.66963527	      0.28585041	     -0.14678211	     -1.66963527	      0.19885473	     -0.14678211	     -1.37499376	      0.16156838	     -0.12310524	     -1.27677992	      0.09941867	     -0.09351217	     -1.17856608	      1.24280291	     -0.68291051	     -8.73977460	      0.00000000	      0.00000000	     25.24916590	     -0.59609161	      3.77481131	     10.60212710	    -12.84295938	     52.07429369	     47.78740231	     86.47364204	      3.86762380	      7.79430723	     16.07096511	     -9.00274616	     55.75890055	     47.70897579	     78.12212664	     18.00292232	     28.01188396
      0.13333333	      2.39315744	     -4.16184228	    119.73130409	      0.30948326	      0.55085051	      0.94360755	      7.37222930	     -4.54171291	    -18.25564273	     16.29930166	      0.28447648	     33.13357441	      6.53655066	      0.00000000	      8.37493619	      4.43952849	      3.79685071	     11.82980342	      0.20646902	     29.47598231	      1.07966986	      0.00000000	      0.17033251	     -0.09431881	     -1.50516339	      0.31632450	     -0.12544402	     -1.59923610	      0.27983927	     -0.22932676	     -1.59923610	      0.19467302	     -0.22932676	     -1.31701796	      0.15817076	     -0.19233492	     -1.22294525	      0.09732799	     -0.14609984	     -1.12887254	      1.21666805	     -1.06695325	     -8.37126721	      0.00000000	      0.00000000	     25.04393167	     -0.39492721	      3.68552545	     10.84202056	    -12.56640761	     53.70972260	     47.29710176	     85.43501938	      2.04817376	      5.78565190	     16.04759291	     -9.82790369	     57.61888867	     48.60240163	     72.20441445	     14.05441408	     28.74819100
      0.15000000	      2.28213360	     -4.08685165	    119.73310797	      0.30908392	      0.55134952	      0.94246719	      7.09752064	     -4.64615025	    -18.90612674	     16.18149507	      0.28242037	     33.30219893	      7.46622329	      0.00000000	      7.99074498	      4.58232421	      4.93726040	     11.36856101	      0.19841882	     29.24566904	      0.06551501	      0.00000000	      0.17611579	     -0.10582078	     -1.52842388	      0.32706464	     -0.14074164	     -1.62395038	      0.28934063	     -0.25729265	     -1.62395038	      0.20128274	     -0.25729265	     -1.33737090	      0.16354112	     -0.21578974	     -1.24184441	      0.10063256	     -0.16391639	     -1.14631791	      1.25797748	     -1.19706584	     -8.50063511	      0.00000000	      0.00000000	     25.00169957	     -0.24939475	      3.76123370	     10.80572689	    -12.30880066	     54.00158541	     46.89487666	     85.18665237	      2.29646078	      4.13712390	     15.65888838	    -10.05641205	     57.26552560	     48.88835615	     72.26471939	     14.62359411	     28.31842816
